<svg width="28" height="30" viewBox="0 0 28 30" fill="none" xmlns="http://www.w3.org/2000/svg">
<path d="M2 7.00001H4.66667M4.66667 7.00001H26M4.66667 7.00001L4.66667 25.6667C4.66667 26.3739 4.94762 27.0522 5.44772 27.5523C5.94781 28.0524 6.62609 28.3333 7.33333 28.3333H20.6667C21.3739 28.3333 22.0522 28.0524 22.5523 27.5523C23.0524 27.0522 23.3333 26.3739 23.3333 25.6667V7.00001M8.66667 7.00001V4.33334C8.66667 3.62609 8.94762 2.94782 9.44772 2.44772C9.94781 1.94762 10.6261 1.66667 11.3333 1.66667H16.6667C17.3739 1.66667 18.0522 1.94762 18.5523 2.44772C19.0524 2.94782 19.3333 3.62609 19.3333 4.33334V7.00001M11.3333 13.6667V21.6667M16.6667 13.6667V21.6667" stroke="#064DC1" stroke-width="3" stroke-linecap="round" stroke-linejoin="round"/>
</svg>
